# xmcd
#
# Track frame offsets:
#   150
#   10440
#   15727
#   24095
#   33715
#   45260
#   53262
#   63370
#   72032
#   77535
#   84130
#   91960
#   98955
#   108440
#
# Disc length: 1561 seconds
#
# Revision: 0
# Processed by: cddbd v1.5.2PL0 Copyright (c) Steve Scherf et al.
# Submitted via: uFREEDB ActiveX Control 1.5
#
DISCID=9406170e
DTITLE=As Favoritas do Rodeio Internacional - As Favoritas do Rodeio Internacional
DYEAR=2006
DGENRE=Country
TTITLE0=Eight More Millles To Louisville
TTITLE1=And Papa Played The Dobro
TTITLE2=Texas On The Farmer Freed Us All
TTITLE3=Death Of The Blue Eagle
TTITLE4=Bright Morning Stars
TTITLE5=Ground Hog Blues
TTITLE6=Last Old Shovel
TTITLE7=Old Man At The Mill
TTITLE8=Pig In A Pen
TTITLE9=Poor Heller Smith
TTITLE10=Sales Taxes On The Women
TTITLE11=Sally Goodin
TTITLE12=There Will Be No
TTITLE13=White House Blues
EXTD=
EXTT0=
EXTT1=
EXTT2=
EXTT3=
EXTT4=
EXTT5=
EXTT6=
EXTT7=
EXTT8=
EXTT9=
EXTT10=
EXTT11=
EXTT12=
EXTT13=
PLAYORDER=
